<svg width="152" height="28" viewBox="0 0 152 28" fill="none" xmlns="http://www.w3.org/2000/svg">
<path d="M0.759219 0.935999C3.25522 0.551999 5.69122 0.36 8.06722 0.36C11.3312 0.36 13.8032 1.056 15.4832 2.448C17.1872 3.816 18.0392 5.784 18.0392 8.352C18.0392 11.136 17.1872 13.248 15.4832 14.688C13.7792 16.128 11.3072 16.848 8.06722 16.848C6.48322 16.848 5.00722 16.776 3.63922 16.632V27H0.759219V0.935999ZM3.63922 14.256C5.03122 14.448 6.43522 14.544 7.85122 14.544C10.2272 14.544 12.0392 14.028 13.2872 12.996C14.5592 11.964 15.1952 10.488 15.1952 8.568C15.1952 6.648 14.5712 5.196 13.3232 4.212C12.0992 3.204 10.2752 2.7 7.85122 2.7C6.53122 2.7 5.12722 2.82 3.63922 3.06V14.256ZM33.306 12.096C32.226 10.752 30.738 10.08 28.842 10.08C26.946 10.08 25.446 10.752 24.342 12.096C23.262 13.416 22.722 15.264 22.722 17.64C22.722 20.016 23.262 21.876 24.342 23.22C25.446 24.54 26.946 25.2 28.842 25.2C30.738 25.2 32.226 24.54 33.306 23.22C34.41 21.876 34.962 20.016 34.962 17.64C34.962 15.264 34.41 13.416 33.306 12.096ZM35.25 24.732C33.642 26.484 31.506 27.36 28.842 27.36C26.178 27.36 24.042 26.484 22.434 24.732C20.826 22.98 20.022 20.616 20.022 17.64C20.022 14.664 20.826 12.3 22.434 10.548C24.042 8.796 26.178 7.92 28.842 7.92C31.506 7.92 33.642 8.796 35.25 10.548C36.858 12.3 37.662 14.664 37.662 17.64C37.662 20.616 36.858 22.98 35.25 24.732ZM41.8133 8.28H44.3693L44.4413 12.276H44.5133C46.6253 9.372 49.6013 7.92 53.4413 7.92V10.188C50.7773 10.188 48.6173 10.92 46.9613 12.384C45.3293 13.848 44.5133 15.744 44.5133 18.072V27H41.8133V8.28ZM64.0658 2.16V9H71.1578V11.16H64.0658V20.988C64.0658 22.668 64.2938 23.796 64.7498 24.372C65.2058 24.924 66.0578 25.2 67.3058 25.2C68.4098 25.2 69.4658 24.996 70.4738 24.588L70.9058 26.712C69.6818 27.144 68.3618 27.36 66.9458 27.36C64.9058 27.36 63.4658 26.928 62.6258 26.064C61.7858 25.176 61.3658 23.652 61.3658 21.492V11.16H57.2258V9H61.3658V2.16H64.0658ZM75.4761 9H80.4081V6.588C80.4081 2.436 82.4001 0.36 86.3841 0.36C87.4881 0.36 88.6161 0.539999 89.7681 0.899999L89.1921 3.06C88.3041 2.7 87.4521 2.52 86.6361 2.52C85.3401 2.52 84.4161 2.832 83.8641 3.456C83.3361 4.056 83.0721 5.1 83.0721 6.588V9H89.5161V11.16H83.0721V27H80.4081V11.16H75.4761V9ZM105.587 12.096C104.507 10.752 103.019 10.08 101.123 10.08C99.2273 10.08 97.7273 10.752 96.6233 12.096C95.5433 13.416 95.0033 15.264 95.0033 17.64C95.0033 20.016 95.5433 21.876 96.6233 23.22C97.7273 24.54 99.2273 25.2 101.123 25.2C103.019 25.2 104.507 24.54 105.587 23.22C106.691 21.876 107.243 20.016 107.243 17.64C107.243 15.264 106.691 13.416 105.587 12.096ZM107.531 24.732C105.923 26.484 103.787 27.36 101.123 27.36C98.4593 27.36 96.3233 26.484 94.7153 24.732C93.1073 22.98 92.3033 20.616 92.3033 17.64C92.3033 14.664 93.1073 12.3 94.7153 10.548C96.3233 8.796 98.4593 7.92 101.123 7.92C103.787 7.92 105.923 8.796 107.531 10.548C109.139 12.3 109.943 14.664 109.943 17.64C109.943 20.616 109.139 22.98 107.531 24.732ZM115.535 27V-2.14577e-06H118.307V27H115.535ZM125.87 3.96V-2.14577e-06H128.642V3.96H125.87ZM125.87 27V8.28H128.642V27H125.87ZM147.494 12.096C146.414 10.752 144.926 10.08 143.03 10.08C141.134 10.08 139.634 10.752 138.53 12.096C137.45 13.416 136.91 15.264 136.91 17.64C136.91 20.016 137.45 21.876 138.53 23.22C139.634 24.54 141.134 25.2 143.03 25.2C144.926 25.2 146.414 24.54 147.494 23.22C148.598 21.876 149.15 20.016 149.15 17.64C149.15 15.264 148.598 13.416 147.494 12.096ZM149.438 24.732C147.83 26.484 145.694 27.36 143.03 27.36C140.366 27.36 138.23 26.484 136.622 24.732C135.014 22.98 134.21 20.616 134.21 17.64C134.21 14.664 135.014 12.3 136.622 10.548C138.23 8.796 140.366 7.92 143.03 7.92C145.694 7.92 147.83 8.796 149.438 10.548C151.046 12.3 151.85 14.664 151.85 17.64C151.85 20.616 151.046 22.98 149.438 24.732Z" fill="black"/>
</svg>
